<svg xmlns="http://www.w3.org/2000/svg" viewBox="0 0 91.3 91.3"><defs><style>.cls-1{fill:#ee7121;}.cls-2{fill:#1d1d1b;}.cls-3{fill:#fff;}</style></defs><g id="Слой_2" data-name="Слой 2"><g id="Слой_5" data-name="Слой 5"><rect class="cls-1" width="91.3" height="91.3" rx="17.008"/><path class="cls-2" d="M69.756,53.175a21.128,21.128,0,0,1-.9,5.448,18.9,18.9,0,0,1-2.3,5,15.537,15.537,0,0,1-8.75,6.4,23.141,23.141,0,0,1-5.36.87c-.9.026-1.8.04-2.7-.019l-.673-.028a5.191,5.191,0,0,1-.748-.1,5.82,5.82,0,0,1-1.417-.5,104.934,104.934,0,0,1-8.857-5.926,75.714,75.714,0,0,1-8.137-6.88c-.633-.634-1.267-1.267-1.851-1.957-.3-.339-.6-.67-.892-1.018l-.833-1.081A25.276,25.276,0,0,1,24.8,51.093c-.246-.391-.428-.834-.644-1.25a7.341,7.341,0,0,1-.558-1.31l-.443-1.384-.277-1.324c-.2-.88-.307-1.775-.462-2.664-.233-1.787-.393-3.583-.449-5.384a48.319,48.319,0,0,1,.862-10.841l0-.008.4-.712.011,0A9.943,9.943,0,0,0,25.4,25.057a15.561,15.561,0,0,0,1.832-1.494,6.691,6.691,0,0,0,1.406-1.936,7,7,0,0,1,1.389-1.953l.366-.337.428-.062A35.537,35.537,0,0,1,38,18.993a29.917,29.917,0,0,1,7.088,1.261,20.624,20.624,0,0,1,6.527,3.369l1.393,1.249c.448.419.816.843,1.227,1.265.8.849,1.578,1.708,2.332,2.59a86.812,86.812,0,0,1,8.2,11.232,46.809,46.809,0,0,1,3.256,6.208A19.056,19.056,0,0,1,69.756,53.175Zm-1.958.016a17.178,17.178,0,0,0-1.727-6.168,44.71,44.71,0,0,0-3.257-5.844,83.128,83.128,0,0,0-8.288-10.648c-.749-.838-1.524-1.654-2.308-2.455-.4-.388-.789-.819-1.185-1.17l-1.181-1.015A18.257,18.257,0,0,0,44.2,23.126a27.742,27.742,0,0,0-6.381-1.1,32.821,32.821,0,0,0-6.5.208l.793-.4a6.978,6.978,0,0,1-2,1.315,6.666,6.666,0,0,0-1.987,1.331,15.742,15.742,0,0,0-1.562,1.774,9.915,9.915,0,0,0-1.235,2.114l.414-.716v.006A46.253,46.253,0,0,0,24.6,37.743c-.006,1.71.088,3.417.249,5.119.118.845.187,1.7.35,2.537l.218,1.263.326,1.133a5.678,5.678,0,0,0,.435,1.122c.177.367.31.75.521,1.109a22.776,22.776,0,0,0,1.333,2.122l.74,1.03.813.988c.531.668,1.12,1.294,1.709,1.921a66.952,66.952,0,0,0,7.746,6.922c2.741,2.106,5.659,4.173,8.526,5.951a4.1,4.1,0,0,0,1.053.389,3.745,3.745,0,0,0,.555.077l.642.027c.857.058,1.712.045,2.566.023a19.687,19.687,0,0,0,5-.83,14.623,14.623,0,0,0,4.442-2.26,13.62,13.62,0,0,0,3.318-3.672A18.8,18.8,0,0,0,67.8,53.191Z"/><polygon class="cls-2" points="50.383 9.946 51.421 23.839 47.421 23.839 48.458 9.946 50.383 9.946"/><polygon class="cls-2" points="66.793 22.114 57.488 31.845 54.854 28.834 65.733 20.904 66.793 22.114"/><polygon class="cls-2" points="75.282 32.346 64.551 41.536 62.215 38.29 74.338 31.034 75.282 32.346"/><polygon class="cls-2" points="80.843 50.777 68.195 51.664 68.195 47.664 80.843 48.551 80.843 50.777"/><polygon class="cls-2" points="41.725 81.206 42.871 67.762 46.815 68.429 43.473 81.502 41.725 81.206"/><polygon class="cls-2" points="26.226 71.477 35.434 60.945 38.281 63.756 27.869 73.099 26.226 71.477"/><polygon class="cls-2" points="18.035 61.623 26.318 52.072 29.128 54.918 19.47 63.078 18.035 61.623"/><polygon class="cls-2" points="10.457 42.123 23.679 41.379 23.679 45.379 10.457 44.635 10.457 42.123"/><polygon class="cls-2" points="14.943 23.252 24.962 25.41 23.603 29.172 14.518 24.427 14.943 23.252"/><polygon class="cls-2" points="31.115 11.195 33.069 20.702 29.071 20.808 30.522 11.21 31.115 11.195"/><path class="cls-2" d="M44.356,22.434A55.288,55.288,0,0,0,38.9,26.322c-1.748,1.378-3.433,2.828-5.082,4.32S30.554,33.668,29,35.271a62.652,62.652,0,0,0-4.477,5.014L22.03,37.423a63.011,63.011,0,0,0,5.578-3.751c1.8-1.319,3.53-2.717,5.242-4.137s3.369-2.9,4.972-4.446a55.18,55.18,0,0,0,4.6-4.878Z"/><path class="cls-2" d="M54.032,28.074c.35,1.042-.088,1.092-.37,1.34l-.894.681c-.589.462-1.2.89-1.817,1.324-1.223.868-2.486,1.687-3.744,2.511a69.039,69.039,0,0,0-7.267,5.3c-2.292,1.932-4.561,3.891-6.745,5.957A88.057,88.057,0,0,0,26.86,51.66l-3.175-3.993a88.063,88.063,0,0,0,7.734-4.713c2.5-1.663,4.925-3.433,7.323-5.23a69.031,69.031,0,0,0,6.8-5.886c1.087-1.041,2.169-2.086,3.29-3.082.561-.5,1.117-1,1.7-1.472l.865-.718c.3-.218.453-.634,1.389-.058Z"/><polygon class="cls-2" points="33.835 29.728 40.865 37.298 37.817 39.656 32.253 30.952 33.835 29.728"/><polygon class="cls-3" points="47.797 43.104 53.869 57.725 52.95 58.12 46.519 43.654 47.797 43.104"/><polygon class="cls-3" points="58.012 51.617 58.461 43.261 59.476 44.4 51.432 43.879 51.432 42.879 59.476 42.358 60.71 42.278 60.49 43.497 59.006 51.733 58.012 51.617"/><polygon class="cls-3" points="42.289 50.664 42.299 57.941 41.596 57.219 49.421 57.423 49.421 58.423 41.596 58.627 40.851 58.646 40.892 57.904 41.289 50.638 42.289 50.664"/></g></g></svg>