<svg xmlns="http://www.w3.org/2000/svg" viewBox="0 0 70.386 71.556"><defs><style>.cls-1{fill:#2d4052;}.cls-2{fill:#ee7121;}</style></defs><g id="Слой_2" data-name="Слой 2"><g id="Слой_2-2" data-name="Слой 2"><path class="cls-1" d="M59.3,43.229a21.121,21.121,0,0,1-.9,5.448,18.92,18.92,0,0,1-2.3,5,15.532,15.532,0,0,1-8.75,6.4,23.2,23.2,0,0,1-5.359.871c-.9.025-1.8.039-2.7-.019l-.672-.029a5.186,5.186,0,0,1-.749-.1,5.833,5.833,0,0,1-1.417-.5A104.7,104.7,0,0,1,27.6,54.366a75.812,75.812,0,0,1-8.137-6.88c-.633-.633-1.267-1.267-1.851-1.956-.3-.34-.6-.671-.892-1.019l-.833-1.081a24.907,24.907,0,0,1-1.543-2.282c-.247-.391-.428-.834-.644-1.251a7.242,7.242,0,0,1-.559-1.31L12.694,37.2l-.276-1.323c-.2-.881-.308-1.776-.462-2.665-.233-1.786-.394-3.583-.45-5.384a48.306,48.306,0,0,1,.862-10.84l0-.009.4-.712.011,0a9.991,9.991,0,0,0,2.159-1.154,15.651,15.651,0,0,0,1.831-1.494,6.673,6.673,0,0,0,1.406-1.936,6.993,6.993,0,0,1,1.389-1.953l.367-.338.428-.062a35.527,35.527,0,0,1,7.178-.282,29.934,29.934,0,0,1,7.089,1.261,20.65,20.65,0,0,1,6.526,3.369l1.393,1.25c.448.419.816.843,1.228,1.264.8.849,1.577,1.708,2.331,2.591a86.708,86.708,0,0,1,8.2,11.231,46.821,46.821,0,0,1,3.256,6.209A19.012,19.012,0,0,1,59.3,43.229Zm-1.958.016a17.147,17.147,0,0,0-1.727-6.167,44.645,44.645,0,0,0-3.257-5.844A82.982,82.982,0,0,0,44.07,20.586c-.75-.839-1.525-1.654-2.309-2.456-.4-.387-.789-.819-1.185-1.169L39.4,15.945a18.227,18.227,0,0,0-5.652-2.764,27.7,27.7,0,0,0-6.382-1.1,32.822,32.822,0,0,0-6.5.207l.794-.4a7.006,7.006,0,0,1-2,1.315,6.674,6.674,0,0,0-1.988,1.332A15.569,15.569,0,0,0,16.1,16.311a9.95,9.95,0,0,0-1.235,2.113l.414-.715v.006A46.183,46.183,0,0,0,14.145,27.8c-.006,1.71.088,3.418.249,5.119.118.845.187,1.7.351,2.538l.217,1.262.327,1.134a5.665,5.665,0,0,0,.434,1.121c.177.368.311.751.521,1.109A22.854,22.854,0,0,0,17.577,42.2l.741,1.031.813.987c.53.668,1.119,1.294,1.708,1.921a66.87,66.87,0,0,0,7.747,6.922c2.74,2.106,5.658,4.174,8.525,5.951a4.094,4.094,0,0,0,1.054.389,3.732,3.732,0,0,0,.554.077l.642.028c.858.057,1.712.044,2.566.022a19.745,19.745,0,0,0,5-.829,14.648,14.648,0,0,0,4.442-2.261,13.6,13.6,0,0,0,3.317-3.672A18.8,18.8,0,0,0,57.341,43.245Z"/><polygon class="cls-1" points="39.926 0 40.964 13.894 36.964 13.894 38.001 0 39.926 0"/><polygon class="cls-1" points="56.336 12.169 47.031 21.899 44.397 18.889 55.277 10.958 56.336 12.169"/><polygon class="cls-1" points="64.825 22.4 54.094 31.591 51.758 28.344 63.881 21.089 64.825 22.4"/><polygon class="cls-1" points="70.386 40.831 57.738 41.718 57.738 37.718 70.386 38.605 70.386 40.831"/><polygon class="cls-1" points="31.268 71.26 32.414 57.816 36.358 58.483 33.016 71.556 31.268 71.26"/><polygon class="cls-1" points="15.769 61.531 24.978 51 27.824 53.81 17.413 63.153 15.769 61.531"/><polygon class="cls-1" points="7.578 51.678 15.862 42.126 18.672 44.973 9.013 53.132 7.578 51.678"/><polygon class="cls-1" points="0 32.178 13.222 31.433 13.222 35.433 0 34.689 0 32.178"/><polygon class="cls-1" points="4.486 13.306 14.505 15.464 13.146 19.226 4.061 14.482 4.486 13.306"/><polygon class="cls-1" points="20.658 1.249 22.612 10.757 18.614 10.862 20.065 1.265 20.658 1.249"/><path class="cls-1" d="M33.9,12.488a55.218,55.218,0,0,0-5.459,3.888c-1.749,1.378-3.434,2.829-5.083,4.32s-3.261,3.026-4.813,4.629a62.861,62.861,0,0,0-4.477,5.015l-2.495-2.862a63.02,63.02,0,0,0,5.578-3.752c1.8-1.319,3.53-2.717,5.242-4.137s3.369-2.9,4.973-4.446a55.189,55.189,0,0,0,4.6-4.878Z"/><path class="cls-1" d="M43.575,18.128c.35,1.042-.088,1.093-.369,1.34l-.894.681c-.59.462-1.206.89-1.818,1.324-1.223.869-2.485,1.688-3.744,2.512a69.134,69.134,0,0,0-7.267,5.3c-2.291,1.932-4.56,3.892-6.745,5.957A88.256,88.256,0,0,0,16.4,41.714l-3.174-3.992a88.2,88.2,0,0,0,7.733-4.714c2.5-1.663,4.925-3.432,7.324-5.229a69.139,69.139,0,0,0,6.8-5.887c1.086-1.04,2.168-2.086,3.29-3.082.56-.5,1.116-1,1.7-1.472l.865-.718c.3-.218.453-.633,1.389-.058Z"/><polygon class="cls-1" points="23.378 19.782 30.408 27.352 27.361 29.711 21.796 21.006 23.378 19.782"/><polygon class="cls-2" points="37.34 33.159 43.412 47.78 42.493 48.175 36.062 33.708 37.34 33.159"/><polygon class="cls-2" points="47.556 41.671 48.005 33.315 49.019 34.455 40.975 33.933 40.975 32.933 49.019 32.412 50.253 32.332 50.033 33.552 48.549 41.787 47.556 41.671"/><polygon class="cls-2" points="31.832 40.719 31.843 47.996 31.139 47.273 38.964 47.477 38.964 48.477 31.139 48.681 30.394 48.701 30.435 47.958 30.833 40.692 31.832 40.719"/></g></g></svg>